<?xml version="1.0" encoding="utf-8"?>
<!-- Generator: Adobe Illustrator 16.0.0, SVG Export Plug-In . SVG Version: 6.00 Build 0)  -->
<!DOCTYPE svg PUBLIC "-//W3C//DTD SVG 1.1//EN" "http://www.w3.org/Graphics/SVG/1.1/DTD/svg11.dtd">
<svg version="1.1" id="Layer_1" xmlns="http://www.w3.org/2000/svg" xmlns:xlink="http://www.w3.org/1999/xlink" x="0px" y="0px"
	 width="300px" height="300px" viewBox="0 0 300 300" enable-background="new 0 0 300 300" xml:space="preserve">
<g>
	<path fill-rule="evenodd" clip-rule="evenodd" d="M51.141,120.777c3.377-0.05,6.127,0.968,8.248,4.312
		c5.566,8.779,11.626,17.243,17.497,25.828c0.551,0.805,1.151,1.578,1.863,2.551c0.694-0.871,1.217-1.467,1.674-2.109
		c14.805-20.81,29.138-43.092,44.973-63.129c1.757-2.224,3.866-2.968,6.486-2.968c9.042,0,9.986,0.042,17.563,0
		c2.167-0.012,3.966,0,8.271,0c-0.85,1.299-1.537,2.042-2.041,2.708c-20.522,27.136-41.143,54.984-61.753,82.053
		c-1.686,2.215-1.833,3.672-0.035,5.924c5.234,7.194,5.234,7.194,10.339,14.203c2,2.443,2.395,3.467,4.428,3.455
		c10.156-0.012,14.063,0.015,20.469-0.008c2.688,0.001,12.094,0.008,13.906-0.086c0,9.752,0.085,18.184,0.085,27.916
		c-2.464,0.055-2.019,0.039-2.993,0.035c-13.636-0.053-27.288-0.029-40.924-0.016c-2.183,0.002-3.518-0.789-4.692-2.594
		c-2.127-3.271-3.136-4.758-9.374-14.12c-7.078-10.449-7.41-11.038-8.184-12.073c-4.26,5.715-8.368,11.176-12.417,16.682
		c-2.512,3.414-4.868,6.947-7.438,10.316c-0.652,0.855-1.848,1.818-2.808,1.832c-8.969,0.141-19.037-0.053-28.6,0.011
		c0.824-1.213,6.489-8.348,7.25-9.376c11.05-14.18,17.452-22.703,28.64-36.773c1.627-2.047,1.509-3.383,0.149-5.49
		c-10.579-16.391-22.44-33.892-34.808-48.986"/>
	<path fill-rule="evenodd" clip-rule="evenodd" d="M219.322,193.564c15.756,0,30.658,0,45.732,0c0,9.842,0,19.576,0,27.992
		c-28.875,0-60.064,0.08-89.292,0.08c0-6.09-0.016-12.115,0.002-18.125c0.003-0.918,0.993-1.91,1.712-2.699
		c13.194-14.482,28.836-28.982,41.95-43.539c6.426-7.133,12.601-14.524,16.116-23.658c2.178-5.659,2.335-11.463,0.323-17.181
		c-2.165-6.16-6.947-9.166-13.341-9.133c-14.792,0.039-30.11,0.02-45.166,0.008c-0.484,0-1.048,0.019-1.604,0.011
		c0-7.17,0-21.72,0-21.72c1.025-0.218,2.414-0.197,3.479-0.2c13.741-0.033,27.25,0,41.047,0c8.012,0,15.86,1.175,23.26,4.524
		c12.519,5.667,19.366,15.395,21.472,29.01c2.004,12.948-2.492,23.707-10.343,33.255c-10.709,13.023-21.922,25.633-32.915,38.422
		C221.112,191.359,220.499,192.133,219.322,193.564z"/>
	<path fill-rule="evenodd" clip-rule="evenodd" d="M175.659,168.904c0.006,1.938-0.361,3.021-2.624,3.012
		c-14.148-0.061-24.605,0.013-38.754,0c-1.594,0.002-4.152-0.001-5.5,0c15.463-20.945,26.719-36.892,41.961-57.536
		c1.227-1.841,1.258-1.893,5.046-7.224"/>
</g>
</svg>
