<svg version="1.1" id="Layer_1" xmlns="http://www.w3.org/2000/svg" xmlns:xlink="http://www.w3.org/1999/xlink" x="0px" y="0px" viewBox="0 0 905 500" style="" xml:space="preserve">
<path class="st0 x42_0" d="M757.1,398.34c0.07-1.15,0.19-2.25,0.19-3.34c0.01-12.64,0.01-25.28,0.01-37.91c0-9.04,0.01-18.08-0.02-27.12
	c0-1.07-0.21-2.14-0.34-3.36c-1.34-0.11-2.35-0.25-3.37-0.26c-6.16-0.02-12.32-0.01-18.48-0.01c-29.84,0-59.67,0-89.51,0
	c-0.91,0-1.81-0.06-3.16-0.11c4.16-4.91,7.95-9.43,11.8-13.89c2.82-3.26,5.76-6.42,8.58-9.68c2.25-2.59,4.36-5.29,6.6-7.89
	c2.6-3.03,5.29-5.98,7.91-8.99c1.41-1.62,2.72-3.34,4.14-4.96c2.53-2.88,5.14-5.7,7.66-8.58c1.78-2.04,3.43-4.19,5.21-6.22
	c4.85-5.51,9.8-10.93,14.59-16.48c2.71-3.13,5.14-6.51,7.78-9.69c3.67-4.42,7.43-8.77,11.16-13.14c3.52-4.13,7.05-8.25,10.04-12.79
	c0.96-1.47,1.86-2.98,2.89-4.4c2.43-3.38,4.57-6.91,6.41-10.65c2.4-4.87,4.51-9.84,6.26-14.99c1.75-5.14,3.45-10.28,3.86-15.74
	c0.04-0.47,0.19-0.94,0.26-1.41c0.23-1.4,0.61-2.81,0.63-4.22c0.07-6,0.16-12-0.02-18c-0.1-3.15-0.68-6.3-1.17-9.43
	c-0.33-2.11-0.72-4.24-1.34-6.28c-1.44-4.8-2.99-9.58-4.58-14.34c-1.75-5.24-4.16-10.18-7.08-14.86c-1.18-1.89-2.42-3.77-3.79-5.53
	c-2.43-3.15-4.79-6.4-7.53-9.28c-3.96-4.16-8.13-8.15-13.11-11.14c-3.96-2.38-7.81-4.97-11.85-7.19c-5.25-2.89-10.9-4.9-16.55-6.88
	c-3.52-1.23-7.2-1.86-10.7-3.2c-1.9-0.73-4.03-0.86-6.07-1.22c-2.43-0.43-4.86-0.83-7.29-1.21c-1.64-0.26-3.29-0.53-4.94-0.68
	c-1.67-0.16-3.35-0.11-5.02-0.27c-1.81-0.17-3.61-0.67-5.42-0.67c-39.52-0.04-79.03-0.03-118.55-0.03c-0.72,0-1.44-0.02-2.16,0.06
	c-1.81,0.2-2.52,0.92-2.68,2.77c-0.08,0.87-0.05,1.76-0.05,2.64c0,15.84-0.02,31.68,0.02,47.52c0.01,2.01-0.46,3.68-1.7,5.32
	c-2.36,3.11-4.5,6.39-6.74,9.6c-2.56,3.67-5.06,7.37-7.69,10.98c-2.82,3.87-5.82,7.61-8.66,11.46c-2.98,4.05-5.81,8.2-8.79,12.26
	c-3.16,4.31-6.45,8.53-9.6,12.84c-3.8,5.21-7.51,10.49-11.28,15.73c-2.52,3.5-5.07,6.97-7.61,10.45
	c-4.18,5.73-8.37,11.46-12.55,17.2c-1.5,2.06-2.95,4.15-4.49,6.19c-2.26,3-4.63,5.91-6.84,8.94c-3.66,5.03-7.2,10.16-10.84,15.2
	c-2.66,3.69-5.44,7.29-8.12,10.96c-2.16,2.96-4.21,6-6.36,8.97c-2.2,3.04-4.46,6.02-6.67,9.05c-0.4,0.55-0.66,1.19-0.96,1.76
	c1.22,1.3,2.58,0.91,3.8,0.91c31.04,0.02,62.07,0.01,93.11,0.01c6,0,12,0,18,0c2.41,0,3.99-1.11,5.01-3.35
	c0.76-1.68,0.88-3.36,0.88-5.13c0-49.99,0-99.99,0-149.98c0-0.88-0.04-1.76,0.03-2.64c0.05-0.6,0.26-1.2,0.47-2.1
	c1.3,0,2.49,0,3.67,0c38.72,0,77.43,0,116.15,0.01c2.78,0,5.49,0.12,8.27,0.85c8.69,2.27,15.1,7.39,19.66,14.94
	c3.14,5.2,4.67,11.06,5.64,16.94c0.76,4.59,1.48,9.25,0.73,14.04c-0.75,4.81-1.38,9.63-2.85,14.26c-2.26,7.08-5.18,13.89-9.09,20.25
	c-2.88,4.69-5.55,9.54-8.78,13.98c-4.31,5.93-8.95,11.63-13.68,17.24c-5.1,6.04-10.43,11.89-15.71,17.78
	c-3.31,3.69-6.66,7.34-10.09,10.91c-3.37,3.51-6.87,6.9-10.3,10.36c-0.56,0.57-1.07,1.18-1.62,1.76
	c-3.44,3.67-6.85,7.37-10.35,10.98c-2.39,2.47-4.92,4.79-7.34,7.22c-2.14,2.15-4.17,4.41-6.33,6.55
	c-4.76,4.71-9.63,9.33-14.36,14.07c-5.81,5.83-11.55,11.72-17.28,17.63c-6.85,7.05-13.66,14.14-20.47,21.22
	c-0.39,0.4-0.72,0.85-1.08,1.28c-1.41,1.72-2.68,3.59-4.26,5.13c-2.19,2.13-2.96,4.67-2.96,7.58c0,13.6-0.01,27.2,0.02,40.8
	c0,0.92,0.23,1.84,0.38,2.91c0.97,0.13,1.74,0.3,2.51,0.33C551.07,399.54,754.47,399.13,757.1,398.34z M446.58,326.54
	c-1.25-0.07-2.5-0.19-3.75-0.19c-27.76-0.01-55.51-0.03-83.27,0.04c-2.87,0.01-5.21-0.78-6.97-3c-2.97-3.75-5.87-7.55-8.77-11.36
	c-1.16-1.52-2.22-3.11-3.37-4.63c-2.45-3.25-4.98-6.44-7.37-9.73c-4.13-5.68-8.11-11.47-12.31-17.1c-2.59-3.47-2.08-8.38,0.26-11.36
	c3.79-4.83,7.67-9.6,11.4-14.47c3.58-4.68,6.98-9.48,10.54-14.18c3.75-4.97,7.59-9.87,11.39-14.8c1.22-1.58,2.43-3.17,3.62-4.77
	c2.37-3.21,4.73-6.44,7.09-9.65c0.99-1.35,1.97-2.7,2.99-4.02c1.8-2.34,3.63-4.64,5.42-6.99c1.2-1.58,2.31-3.24,3.52-4.82
	c1.7-2.21,3.48-4.36,5.17-6.58c2.52-3.3,4.96-6.65,7.47-9.95c2.65-3.5,5.38-6.94,8.01-10.46c3.29-4.41,6.51-8.87,9.78-13.3
	c0.61-0.83,1.34-1.59,1.96-2.42c2.52-3.39,4.99-6.82,7.52-10.2c2.34-3.13,4.77-6.2,7.12-9.32c2.11-2.8,4.17-5.64,6.28-8.45
	c2.3-3.06,4.64-6.09,6.93-9.16c2.15-2.87,4.21-5.81,6.39-8.65c4.81-6.27,9.7-12.48,14.49-18.76c3.43-4.51,6.75-9.09,10.11-13.65
	c2.27-3.08,4.46-6.23,6.8-9.26c2.53-3.28,5.22-6.45,7.79-9.7c0.61-0.78,1.44-1.56,0.92-3.12c-0.94-0.08-2.01-0.26-3.07-0.26
	c-21.76-0.01-43.52,0.01-65.27-0.04c-2.38-0.01-4.57,0.39-6.73,1.34c-2.37,1.04-4.64,2.26-6.34,4.22c-2.62,3.01-5.12,6.12-7.58,9.27
	c-4.07,5.22-8.07,10.5-12.08,15.76c-1.26,1.65-2.5,3.3-3.72,4.98c-2.44,3.34-4.85,6.71-7.29,10.05c-2.21,3.02-4.5,6-6.68,9.04
	c-2.97,4.14-5.87,8.33-8.82,12.48c-2.21,3.13-4.47,6.23-6.66,9.37c-3.33,4.78-6.6,9.6-9.94,14.38c-1.64,2.35-3.4,4.62-5.03,6.97
	c-3.4,4.91-6.76,9.85-10.14,14.78c-0.54,0.79-1.09,1.57-1.63,2.37c-1.93,2.84-3.83,5.7-5.8,8.51c-2.38,3.4-4.85,6.73-7.21,10.14
	c-4.23,6.1-8.38,12.25-12.63,18.34c-3.65,5.24-7.36,10.43-11.08,15.62c-0.91,1.28-1.96,2.46-3.18,3.99
	c-0.95-1.05-1.76-1.79-2.39-2.66c-1.59-2.2-3.09-4.47-4.65-6.69c-3.21-4.57-6.46-9.11-9.65-13.7c-3.54-5.11-7.01-10.26-10.54-15.38
	c-2.67-3.88-5.39-7.73-8.04-11.62c-1.43-2.11-2.72-4.32-4.12-6.45c-2.72-4.13-5.51-8.21-8.2-12.36c-2.3-3.55-4.49-7.04-8.37-9.31
	c-3.19-1.87-6.35-3.22-10.06-3.21c-12.56,0.02-25.12,0-37.68,0c-8.72,0-17.44-0.01-26.16,0.01c-0.99,0-1.97,0.18-3.24,0.31
	c0.44,0.83,0.63,1.35,0.95,1.76c3.65,4.63,7.36,9.23,10.99,13.88c4.36,5.6,8.75,11.18,12.98,16.88c3.42,4.61,7.03,9.08,10.23,13.86
	c3.63,5.43,7.63,10.62,11.44,15.93c2.79,3.89,5.55,7.79,8.27,11.72c3.63,5.24,7.26,10.48,10.81,15.78
	c3.95,5.89,7.82,11.84,11.71,17.76c2.5,3.8,5.02,7.58,7.47,11.41c1.89,2.96,3.74,5.95,5.47,9c1.24,2.21,1.5,4.53-0.07,6.79
	c-0.59,0.85-1.08,1.77-1.71,2.59c-1.71,2.21-3.52,4.34-5.21,6.56c-2.71,3.54-5.3,7.17-8.03,10.69c-3.13,4.03-6.36,7.98-9.53,11.98
	c-4.15,5.25-8.31,10.5-12.42,15.78c-2.5,3.21-4.87,6.52-7.37,9.72c-3.92,5.02-7.94,9.97-11.87,14.99c-2.95,3.77-5.81,7.6-8.73,11.39
	c-3.26,4.23-6.54,8.45-9.83,12.66c-3.14,4.02-6.31,8.03-9.46,12.04c-2.42,3.07-4.87,6.12-7.24,9.24c-0.69,0.91-1.14,2-1.91,3.39
	c1.31,0.13,2.15,0.28,2.98,0.28c23.44,0.01,46.88,0,70.31,0.03c1.59,0,3.12-0.25,4.3-1.2c1.79-1.44,3.57-2.98,4.99-4.77
	c2.37-2.99,4.43-6.24,6.67-9.33c2.06-2.84,4.33-5.54,6.27-8.46c2.69-4.06,5.5-8,8.51-11.84c4.67-5.96,9.08-12.12,13.59-18.21
	c3.46-4.68,6.89-9.37,10.36-14.04c1.02-1.38,2.14-2.69,3.3-4.15c0.57,0.52,1.07,0.83,1.36,1.26c2.11,3.2,4.13,6.46,6.28,9.63
	c4.92,7.27,9.91,14.48,14.83,21.74c3.48,5.15,6.87,10.36,10.31,15.54c3.88,5.85,7.8,11.67,11.65,17.53
	c2.9,4.41,7.07,6.26,12.19,6.27c16.24,0.01,32.48,0,48.72,0c20,0,40,0,59.99-0.01c1.16,0,2.32-0.13,3.35-0.19
	C447.41,396.25,447.4,329.12,446.58,326.54z"></path>
<style data="x42">.x42_0{
	    stroke-dasharray:3595 3597;
	    stroke-dashoffset:3596;
	    animation:x42_0_draw 3000ms ease-in-out 0ms forwards;
		stroke:#000000;
		fill:#fff;
	}
	.st0{
	    stroke-width:1;
	    stroke-miterlimit:10;
	    margin-left:auto; 
	    margin-right:auto; 
	    display:block;
	 }
	@keyframes x42_0_draw{100%
	{ 
	    stroke-dashoffset:0;
		fill:black;
	}
	}
	@keyframes x42_0_fade{0%
	{
		stroke-opacity:1;
	}
	94.44444444444444%{
		stroke-opacity:1;
		
	}
	100%{
		stroke-opacity:0;
		stroke:none !important;
		
	}
	
	}</style></svg>