<svg xmlns="http://www.w3.org/2000/svg" width="1920" height="1920" viewBox="0 0 1920 1920">
  <metadata><?xpacket begin="﻿" id="W5M0MpCehiHzreSzNTczkc9d"?>
<x:xmpmeta xmlns:x="adobe:ns:meta/" x:xmptk="Adobe XMP Core 5.6-c142 79.160924, 2017/07/13-01:06:39        ">
   <rdf:RDF xmlns:rdf="http://www.w3.org/1999/02/22-rdf-syntax-ns#">
      <rdf:Description rdf:about=""
            xmlns:xmp="http://ns.adobe.com/xap/1.0/">
         <xmp:CreatorTool>Adobe Photoshop CC (Windows)</xmp:CreatorTool>
      </rdf:Description>
   </rdf:RDF>
</x:xmpmeta>
                                                                                                    
                                                                                                    
                                                                                                    
                                                                                                    
                                                                                                    
                                                                                                    
                                                                                                    
                                                                                                    
                                                                                                    
                                                                                                    
                                                                                                    
                                                                                                    
                                                                                                    
                                                                                                    
                                                                                                    
                                                                                                    
                                                                                                    
                                                                                                    
                                                                                                    
                                                                                                    
                           
<?xpacket end="w"?></metadata>
<defs>
    <style>
      .cls-1 {
        fill: #fff;
      }

      .cls-1, .cls-2 {
        fill-rule: evenodd;
      }

      .cls-2 {
        fill: #000315;
      }
    </style>
  </defs>
  <path class="cls-1" d="M960,42c507,0,918,411,918,918s-411,918-918,918S42,1467,42,960,453,42,960,42ZM486,933L678,633h570l192,300v360H486V933Zm75,3L717,681h492l156,255H1125v111s-6,51-51,51H849s-51,12-51-51V936H561Z"/>
  <path class="cls-2" d="M486,936L678,633h570l192,303v357H486V936"/>
  <path class="cls-1" d="M561,937L717,682h492l156,255H1125v120s-6,42-51,42H849s-51-3-51-51V937H561Z"/>
  <path class="cls-2" d="M846,924l-24-69-66,69-66,3L810,810l-27-81,36,3,24,45,84-84h36L861,810l21,45,69,3,3,69Zm176,6-3-69s105-120,45-144H989l-3-24s156-24,141,84l-24,78h96l36,72Zm-17-123-18-90-63,90h81Z"/>
</svg>
