<svg version="1.1" id="Layer_1" xmlns="http://www.w3.org/2000/svg" xmlns:xlink="http://www.w3.org/1999/xlink" x="0px" y="0px" width="30%" height="30%" viewBox="0 0 547.4 256.8" enable-background="new 0 0 547.4 256.8" xml:space="preserve">
<g id="X">
	<path stroke="#000000" stroke-miterlimit="10" d="M246.9-0.1c-3.7,5.1-7.4,10.2-11.2,15.3c-35.7,47.4-71.4,94.7-107.1,142.1
		c-5.2,7-5.2,8.4-0.2,15.4c18.6,26.2,37.3,52.4,55.9,78.6c0.9,1.3,1.7,2.6,3,4.6c-2.2,0.3-3.4,0.6-4.7,0.6c-13.2,0-26.3-0.1-39.5,0
		c-8.2,0.1-14.2-3.1-18.6-10.3c-8.1-13.4-16.7-26.4-25.2-39.6c-1-1.5-2.1-2.9-3.7-4.9c-1.6,1.9-3,3.3-4.1,4.9
		c-10.5,14.2-21,28.4-31.3,42.7c-3.2,4.5-6.8,6.5-12.5,6.4c-15.3-0.4-30.6-0.1-47-0.1c1.3-2.1,2.1-3.4,3-4.6
		c20.4-26.2,40.7-52.3,61.1-78.4c5.7-7.3,6-8.6,0.6-16.3c-19.9-28.3-40-56.5-60-84.8c-0.7-0.9-1.3-1.9-2.4-3.5
		c1.9-0.2,3.3-0.5,4.7-0.5c12.8-0.1,25.7,0,38.5-0.1c7.3-0.1,12.6,3,16.6,9.1c10.4,15.7,21.1,31.2,31.7,46.7
		c1.2,1.7,2.6,3.3,4.4,5.7c2.1-2.7,4-4.8,5.5-7c23.5-33.3,47-66.7,70.6-100c2.5-3.5,5.3-6.8,7.8-10.4c3.6-5.1,7.7-9.6,13.9-11.5
		C213.6-0.1,230.3-0.1,246.9-0.1z" class="X-SERVER-LOGO"></path>
</g>
	<g>
	<path id="S" stroke="#000000" stroke-miterlimit="10" d="M161.6,188.4l4.9-6.3c5.8,6,12.9,10.2,22.5,10.2c10.6,0,16-6,16-12.3
		c0-7.5-6.5-10.5-18.5-13.4c-13.8-3.3-22.5-7.7-22.5-19.9c0-11.3,9.8-20.1,23-20.1c10.2,0,17.8,4.1,24.1,10.1l-4.8,6.3
		c-5.7-5.7-12.5-9-19.7-9c-8.5,0-14.7,5.8-14.7,12.2c0,7.3,6.8,9.9,18.5,12.7c13.1,3.2,22.5,8,22.5,20.5c0,11.2-8.2,20.4-24.1,20.4
		C177.4,199.6,168.5,195.4,161.6,188.4z" class="S-SERVER"></path>
	<path id="E" stroke="#000000" stroke-miterlimit="10" d="M234,135.5v23.2h37.2v7.6H234v24.6h41.3v7.6h-49.2v-70.6h49.2v7.6H234z" class="E-SERVER"></path>
	<path id="R" stroke="#000000" stroke-miterlimit="10" d="M323.1,172.4l17.8,26.1H332l-17.4-25.4h-18.2v25.4h-7.8v-70.6h27.8
		c14.2,0,25.2,9.4,25.2,22.6C341.8,161.6,334,170,323.1,172.4z M296.4,165.5h18.7c11.2,0,18.8-5.6,18.8-15s-7.6-15-18.8-15h-18.7
		V165.5z" class="R-SERVER"></path>
	<path id="V" stroke="#000000" stroke-miterlimit="10" d="M417.8,127.9l-30.2,70.6h-8.5l-30.2-70.6h8.5l26,60.8l25.9-60.8H417.8z" class="V-SERVER"></path>
	<path id="E_1_" stroke="#000000" stroke-miterlimit="10" d="M436.8,135.5v23.2H474v7.6h-37.2v24.6h41.3v7.6h-49.2v-70.6h49.2v7.6
		H436.8z" class="E-SERVER"></path>
	<path id="R_1_" stroke="#000000" stroke-miterlimit="10" d="M525.9,172.4l17.8,26.1h-8.9l-17.4-25.4h-18.2v25.4h-7.8v-70.6h27.8
		c14.2,0,25.2,9.4,25.2,22.6C544.5,161.6,536.7,170,525.9,172.4z M499.2,165.5h18.7c11.2,0,18.8-5.6,18.8-15s-7.6-15-18.8-15h-18.7
		V165.5z" class="R-SERVER"></path>
</g>
  <style data="XServer">
@-webkit-keyframes animate-svg-stroke-1 {
  0% {
    stroke-dashoffset: 1130.359619140625px;
    stroke-dasharray: 1130.359619140625px;
  }

  100% {
    stroke-dashoffset: 0;
  }
}

@keyframes animate-svg-stroke-1 {
  0% {
    stroke-dashoffset: 1130.359619140625px;
    stroke-dasharray: 1130.359619140625px;
  }

  100% {
    stroke-dashoffset: 0;
  }
}

@-webkit-keyframes animate-svg-fill-1 {
  0% {
    fill: transparent;
  }

  100% {
    fill: rgb(0, 0, 0);
  }
}

@keyframes animate-svg-fill-1 {
  0% {
    fill: transparent;
  }

  100% {
    fill: rgb(0, 0, 0);
  }
}

.X-SERVER-LOGO {
  -webkit-animation: animate-svg-stroke-1 1s cubic-bezier(0.47, 0, 0.745, 0.715) 0s both,
                       animate-svg-fill-1 0.7s cubic-bezier(0.47, 0, 0.745, 0.715) 0.8s both;
          animation: animate-svg-stroke-1 1s cubic-bezier(0.47, 0, 0.745, 0.715) 0s both,
               animate-svg-fill-1 0.7s cubic-bezier(0.47, 0, 0.745, 0.715) 0.8s both;
}

@-webkit-keyframes animate-svg-stroke-2 {
  0% {
    stroke-dashoffset: 351.54241943359375px;
    stroke-dasharray: 351.54241943359375px;
  }

  100% {
    stroke-dashoffset: 0;
  }
}

@keyframes animate-svg-stroke-2 {
  0% {
    stroke-dashoffset: 351.54241943359375px;
    stroke-dasharray: 351.54241943359375px;
  }

  100% {
    stroke-dashoffset: 0;
  }
}

@-webkit-keyframes animate-svg-fill-2 {
  0% {
    fill: transparent;
  }

  100% {
    fill: rgb(0, 0, 0);
  }
}

@keyframes animate-svg-fill-2 {
  0% {
    fill: transparent;
  }

  100% {
    fill: rgb(0, 0, 0);
  }
}

.S-SERVER {
  -webkit-animation: animate-svg-stroke-2 1s cubic-bezier(0.47, 0, 0.745, 0.715) 0.12s both,
                       animate-svg-fill-2 0.7s cubic-bezier(0.47, 0, 0.745, 0.715) 0.9s both;
          animation: animate-svg-stroke-2 1s cubic-bezier(0.47, 0, 0.745, 0.715) 0.12s both,
               animate-svg-fill-2 0.7s cubic-bezier(0.47, 0, 0.745, 0.715) 0.9s both;
}

@-webkit-keyframes animate-svg-stroke-3 {
  0% {
    stroke-dashoffset: 398.60003662109375px;
    stroke-dasharray: 398.60003662109375px;
  }

  100% {
    stroke-dashoffset: 0;
  }
}

@keyframes animate-svg-stroke-3 {
  0% {
    stroke-dashoffset: 398.60003662109375px;
    stroke-dasharray: 398.60003662109375px;
  }

  100% {
    stroke-dashoffset: 0;
  }
}

@-webkit-keyframes animate-svg-fill-3 {
  0% {
    fill: transparent;
  }

  100% {
    fill: rgb(0, 0, 0);
  }
}

@keyframes animate-svg-fill-3 {
  0% {
    fill: transparent;
  }

  100% {
    fill: rgb(0, 0, 0);
  }
}

.E-SERVER {
  -webkit-animation: animate-svg-stroke-3 1s cubic-bezier(0.47, 0, 0.745, 0.715) 0.24s both,
                       animate-svg-fill-3 0.7s cubic-bezier(0.47, 0, 0.745, 0.715) 1s both;
          animation: animate-svg-stroke-3 1s cubic-bezier(0.47, 0, 0.745, 0.715) 0.24s both,
               animate-svg-fill-3 0.7s cubic-bezier(0.47, 0, 0.745, 0.715) 1s both;
}

@-webkit-keyframes animate-svg-stroke-4 {
  0% {
    stroke-dashoffset: 413.5962219238281px;
    stroke-dasharray: 413.5962219238281px;
  }

  100% {
    stroke-dashoffset: 0;
  }
}

@keyframes animate-svg-stroke-4 {
  0% {
    stroke-dashoffset: 413.5962219238281px;
    stroke-dasharray: 413.5962219238281px;
  }

  100% {
    stroke-dashoffset: 0;
  }
}

@-webkit-keyframes animate-svg-fill-4 {
  0% {
    fill: transparent;
  }

  100% {
    fill: rgb(0, 0, 0);
  }
}

@keyframes animate-svg-fill-4 {
  0% {
    fill: transparent;
  }

  100% {
    fill: rgb(0, 0, 0);
  }
}

.R-SERVER {
  -webkit-animation: animate-svg-stroke-4 1s cubic-bezier(0.47, 0, 0.745, 0.715) 0.36s both,
                       animate-svg-fill-4 0.7s cubic-bezier(0.47, 0, 0.745, 0.715) 1.1s both;
          animation: animate-svg-stroke-4 1s cubic-bezier(0.47, 0, 0.745, 0.715) 0.36s both,
               animate-svg-fill-4 0.7s cubic-bezier(0.47, 0, 0.745, 0.715) 1.1s both;
}

@-webkit-keyframes animate-svg-stroke-5 {
  0% {
    stroke-dashoffset: 313.2887268066406px;
    stroke-dasharray: 313.2887268066406px;
  }

  100% {
    stroke-dashoffset: 0;
  }
}

@keyframes animate-svg-stroke-5 {
  0% {
    stroke-dashoffset: 313.2887268066406px;
    stroke-dasharray: 313.2887268066406px;
  }

  100% {
    stroke-dashoffset: 0;
  }
}

@-webkit-keyframes animate-svg-fill-5 {
  0% {
    fill: transparent;
  }

  100% {
    fill: rgb(0, 0, 0);
  }
}

@keyframes animate-svg-fill-5 {
  0% {
    fill: transparent;
  }

  100% {
    fill: rgb(0, 0, 0);
  }
}

.V-SERVER {
  -webkit-animation: animate-svg-stroke-5 1s cubic-bezier(0.47, 0, 0.745, 0.715) 0.48s both,
                       animate-svg-fill-5 0.7s cubic-bezier(0.47, 0, 0.745, 0.715) 1.2000000000000002s both;
          animation: animate-svg-stroke-5 1s cubic-bezier(0.47, 0, 0.745, 0.715) 0.48s both,
               animate-svg-fill-5 0.7s cubic-bezier(0.47, 0, 0.745, 0.715) 1.2000000000000002s both;
}

@-webkit-keyframes animate-svg-stroke-6 {
  0% {
    stroke-dashoffset: 398.60003662109375px;
    stroke-dasharray: 398.60003662109375px;
  }

  100% {
    stroke-dashoffset: 0;
  }
}

@keyframes animate-svg-stroke-6 {
  0% {
    stroke-dashoffset: 398.60003662109375px;
    stroke-dasharray: 398.60003662109375px;
  }

  100% {
    stroke-dashoffset: 0;
  }
}

@-webkit-keyframes animate-svg-fill-6 {
  0% {
    fill: transparent;
  }

  100% {
    fill: rgb(0, 0, 0);
  }
}

@keyframes animate-svg-fill-6 {
  0% {
    fill: transparent;
  }

  100% {
    fill: rgb(0, 0, 0);
  }
}

.E-SERVER {
  -webkit-animation: animate-svg-stroke-6 1s cubic-bezier(0.47, 0, 0.745, 0.715) 0.6s both,
                       animate-svg-fill-6 0.7s cubic-bezier(0.47, 0, 0.745, 0.715) 1.3s both;
          animation: animate-svg-stroke-6 1s cubic-bezier(0.47, 0, 0.745, 0.715) 0.6s both,
               animate-svg-fill-6 0.7s cubic-bezier(0.47, 0, 0.745, 0.715) 1.3s both;
}

@-webkit-keyframes animate-svg-stroke-7 {
  0% {
    stroke-dashoffset: 413.5455017089844px;
    stroke-dasharray: 413.5455017089844px;
  }

  100% {
    stroke-dashoffset: 0;
  }
}

@keyframes animate-svg-stroke-7 {
  0% {
    stroke-dashoffset: 413.5455017089844px;
    stroke-dasharray: 413.5455017089844px;
  }

  100% {
    stroke-dashoffset: 0;
  }
}

@-webkit-keyframes animate-svg-fill-7 {
  0% {
    fill: transparent;
  }

  100% {
    fill: rgb(0, 0, 0);
  }
}

@keyframes animate-svg-fill-7 {
  0% {
    fill: transparent;
  }

  100% {
    fill: rgb(0, 0, 0);
  }
}

.R-SERVER {
  -webkit-animation: animate-svg-stroke-7 1s cubic-bezier(0.47, 0, 0.745, 0.715) 0.72s both,
                       animate-svg-fill-7 0.7s cubic-bezier(0.47, 0, 0.745, 0.715) 1.4000000000000001s both;
          animation: animate-svg-stroke-7 1s cubic-bezier(0.47, 0, 0.745, 0.715) 0.72s both,
               animate-svg-fill-7 0.7s cubic-bezier(0.47, 0, 0.745, 0.715) 1.4000000000000001s both;
}
  </style>
</svg>